<?xml version="1.0" encoding="UTF-8"?><svg id="Layer_1" xmlns="http://www.w3.org/2000/svg" viewBox="0 0 797.87 138.7"><defs><style>.cls-1{fill:#080b10;}</style></defs><path class="cls-1" d="M0,0h67.73v20.14H23.18v38.76h41.51v20.14H23.18v56.62H0V0Z"/><path class="cls-1" d="M78.51,86.45c0-17.22,3.29-30.3,9.88-39.23,6.58-8.93,16.21-13.4,28.88-13.4,25.46,0,38.19,17.36,38.19,52.06,0,17.23-3.26,30.34-9.79,39.33-6.53,9-16.18,13.49-28.97,13.49-25.46,0-38.19-17.41-38.19-52.25ZM101.12,86.26c0,12.67,1.26,21.75,3.8,27.26,2.53,5.51,6.52,8.26,11.97,8.26s9.79-2.75,12.26-8.26c2.47-5.51,3.71-14.66,3.71-27.46s-1.24-21.72-3.71-27.17c-2.47-5.44-6.49-8.17-12.07-8.17s-9.79,2.73-12.25,8.17c-2.47,5.45-3.71,14.57-3.71,27.36Z"/><path class="cls-1" d="M173.51,0h21.85v135.66h-21.85V0Z"/><path class="cls-1" d="M217.39,0h21.85v135.66h-21.85V0Z"/><path class="cls-1" d="M257.29,86.45c0-17.22,3.29-30.3,9.88-39.23,6.58-8.93,16.21-13.4,28.88-13.4,25.46,0,38.19,17.36,38.19,52.06,0,17.23-3.26,30.34-9.79,39.33-6.53,9-16.18,13.49-28.97,13.49-25.46,0-38.19-17.41-38.19-52.25ZM279.9,86.26c0,12.67,1.26,21.75,3.8,27.26,2.53,5.51,6.52,8.26,11.97,8.26s9.79-2.75,12.26-8.26c2.47-5.51,3.71-14.66,3.71-27.46s-1.24-21.72-3.71-27.17c-2.47-5.44-6.49-8.17-12.07-8.17s-9.79,2.73-12.25,8.17c-2.47,5.45-3.71,14.57-3.71,27.36Z"/><path class="cls-1" d="M375.66,110.2l14.63-72.77h18.24l14.06,72.2,10.83-72.77h21.66l-21.09,98.8h-20.9l-14.06-71.25-14.82,71.25h-20.9l-21.09-98.8h22.99l10.45,73.34Z"/><path class="cls-1" d="M477.69,0h67.73v20.14h-44.55v38.76h41.51v20.14h-41.51v56.62h-23.18V0Z"/><path class="cls-1" d="M560.19,0h21.85v135.66h-21.85V0Z"/><path class="cls-1" d="M600.09,86.45c0-17.22,3.29-30.3,9.88-39.23,6.58-8.93,16.21-13.4,28.88-13.4,25.46,0,38.19,17.36,38.19,52.06,0,17.23-3.26,30.34-9.79,39.33-6.52,9-16.18,13.49-28.97,13.49-25.46,0-38.19-17.41-38.19-52.25ZM622.7,86.26c0,12.67,1.26,21.75,3.8,27.26,2.53,5.51,6.52,8.26,11.97,8.26s9.78-2.75,12.25-8.26c2.47-5.51,3.71-14.66,3.71-27.46s-1.23-21.72-3.71-27.17c-2.47-5.44-6.49-8.17-12.06-8.17s-9.79,2.73-12.25,8.17c-2.47,5.45-3.71,14.57-3.71,27.36Z"/><path class="cls-1" d="M718.45,110.2l14.63-72.77h18.24l14.06,72.2,10.83-72.77h21.66l-21.09,98.8h-20.9l-14.06-71.25-14.82,71.25h-20.9l-21.09-98.8h22.99l10.45,73.34Z"/></svg>